PathFileType	4	(X/Y/Z)	/Users/itak/Documents/Research/Walk-IL/dataset/trc/00238_00009.trc
DataRate	CameraRate	NumFrames	NumMarkers	Units	OrigDataRate	OrigDataStartFrame	OrigNumFrames
100.000000	100.000000	4	53	mm	100.000000	0	827
Frame#	Time	RPSI			LPSI			L3			STRN			T10			C7			CLAV			RBAK			LBAK			LSHO			LUPA			LAEL			LAOL			LWTS			LWPS			LFRA			LIFD			LHPS			LHTS			RSHO			RUPA			RAEL			RAOL			RWTS			RWPS			RFRA			RIFD			RHTS			RHPS			RBHD			LFHD			RFHD			LBHD			LHIP			RHIP			RASI			LASI			LKNE			LTHI			LANK			LTIP			LTOE			LMT1			LMT5			LHEE			RKNE			RTHI			RANK			RTIP			RTOE			RMT1			RMT5			RHEE			
		X1	Y1	Z1	X2	Y2	Z2	X3	Y3	Z3	X4	Y4	Z4	X5	Y5	Z5	X6	Y6	Z6	X7	Y7	Z7	X8	Y8	Z8	X9	Y9	Z9	X10	Y10	Z10	X11	Y11	Z11	X12	Y12	Z12	X13	Y13	Z13	X14	Y14	Z14	X15	Y15	Z15	X16	Y16	Z16	X17	Y17	Z17	X18	Y18	Z18	X19	Y19	Z19	X20	Y20	Z20	X21	Y21	Z21	X22	Y22	Z22	X23	Y23	Z23	X24	Y24	Z24	X25	Y25	Z25	X26	Y26	Z26	X27	Y27	Z27	X28	Y28	Z28	X29	Y29	Z29	X30	Y30	Z30	X31	Y31	Z31	X32	Y32	Z32	X33	Y33	Z33	X34	Y34	Z34	X35	Y35	Z35	X36	Y36	Z36	X37	Y37	Z37	X38	Y38	Z38	X39	Y39	Z39	X40	Y40	Z40	X41	Y41	Z41	X42	Y42	Z42	X43	Y43	Z43	X44	Y44	Z44	X45	Y45	Z45	X46	Y46	Z46	X47	Y47	Z47	X48	Y48	Z48	X49	Y49	Z49	X50	Y50	Z50	X51	Y51	Z51	X52	Y52	Z52	X53	Y53	Z53	

1	0	231.5088500976562	1051.03466796875	835.4847412109375	210.6589508056641	1055.441040039062	953.9385375976562	226.3617248535156	1132.839721679688	913.89453125	-12.28870677947998	1316.175415039062	874.9595947265625	236.8380432128906	1258.953735351562	913.5438842773438	174.2714538574219	1520.225952148438	911.1942749023438	13.78128528594971	1433.191528320312	879.5739135742188	266.7096557617188	1383.875122070312	849.5941162109375	175.7544097900391	1480.3359375	1022.799865722656	77.15160369873047	1479.377807617188	1061.769165039062	93.14601898193359	1360.610595703125	1142.2958984375	70.63777160644531	1150.54296875	1167.271362304688	149.9188690185547	1133.250732421875	1134.295654296875	-9.724678039550781	917.7303466796875	1091.441040039062	-0.621718168258667	900.1521606445312	1174.7939453125	44.79086303710938	1043.258056640625	1176.374389648438	-36.38917541503906	723.600830078125	1099.002807617188	-21.58804512023926	813.1426391601562	1165.766723632812	-55.56352996826172	831.3012084960938	1103.702758789062	147.4269104003906	1480.54931640625	733.2457885742188	178.9677276611328	1415.616455078125	670.193603515625	196.1330718994141	1135.011352539062	627.727783203125	220.2332000732422	1125.770629882812	719.432861328125	49.06197738647461	923.77294921875	650.7963256835938	108.9043045043945	909.0409545898438	592.486083984375	169.6497955322266	1067.540161132812	611.0667724609375	29.53466987609863	728.21630859375	645.0109252929688	9.996476173400879	803.2893676757812	627.2389526367188	68.51609802246094	803.679931640625	583.3388671875	129.1191864013672	1686.331909179688	855.0565795898438	-94.48183441162109	1698.087158203125	892.0183715820312	-67.84734344482422	1696.09521484375	795.2643432617188	49.75901794433594	1688.73681640625	970.6076049804688	88.70903015136719	989.355224609375	1074.486206054688	154.6795501708984	1009.837524414062	714.0863037109375	53.46866989135742	1052.099243164062	732.6697387695312	-2.75291895866394	1030.748168945312	1009.598571777344	74.46780395507812	503.6531677246094	1013.539001464844	67.69472503662109	646.8427124023438	1050.0068359375	159.7371368408203	36.07145309448242	998.7291870117188	123.5872802734375	282.0037536621094	1019.035583496094	-45.86242294311523	44.418701171875	914.6484375	26.29120635986328	38.62337875366211	879.2506713867188	30.96824836730957	36.00955581665039	999.4318237304688	227.4706420898438	43.5994873046875	954.45458984375	112.1065444946289	516.388671875	750.0421142578125	98.6004638671875	784.190673828125	697.7271728515625	173.5363616943359	37.76964950561523	788.7122192382812	104.7769927978516	400.9305419921875	768.7722778320312	-42.03877258300781	44.59587478637695	809.4633178710938	10.46481704711914	41.94161605834961	862.6412963867188	65.70654296875	38.32439422607422	752.119873046875	229.5830688476562	34.72424697875977	852.9664916992188	
2	0.01	231.4757690429688	1051.04052734375	835.44921875	210.6505584716797	1055.452270507812	953.897216796875	226.3548431396484	1132.857543945312	913.8453979492188	-12.25516223907471	1316.1640625	874.9794311523438	236.8591613769531	1258.949096679688	913.47216796875	174.2599792480469	1520.230590820312	911.1416015625	13.75473785400391	1433.201904296875	879.5558471679688	266.7029113769531	1383.888671875	849.5110473632812	175.7822723388672	1480.342651367188	1022.748657226562	77.16233825683594	1479.385864257812	1061.752075195312	93.17327880859375	1360.612548828125	1142.281372070312	70.65947723388672	1150.544677734375	1167.255126953125	149.9183654785156	1133.25390625	1134.266967773438	-9.665804862976074	917.7175903320312	1091.4521484375	-0.5659322142601013	900.1621704101562	1174.804321289062	44.81573867797852	1043.250854492188	1176.3564453125	-35.97581481933594	723.486572265625	1099.231079101562	-21.51818656921387	813.1130981445312	1165.761108398438	-54.07468795776367	827.509765625	1103.70751953125	147.3823089599609	1480.543701171875	733.2046508789062	178.8410491943359	1415.632690429688	670.138671875	196.0727691650391	1135.015747070312	627.655517578125	220.1820220947266	1125.766967773438	719.3523559570312	49.07411193847656	923.7450561523438	650.7833251953125	108.8055572509766	909.0645141601562	592.4027099609375	169.5334320068359	1067.550537109375	610.9917602539062	29.44284629821777	728.2442016601562	644.9442749023438	9.85224723815918	803.2993774414062	627.1675415039062	68.43216705322266	803.7091064453125	583.2786254882812	129.1009674072266	1686.324340820312	855.0304565429688	-94.48433685302734	1698.084716796875	892.0535278320312	-67.88275909423828	1696.114501953125	795.2955932617188	49.77441024780273	1688.728759765625	970.597900390625	88.70053863525391	989.350830078125	1074.46826171875	154.6476898193359	1009.835083007812	714.0596923828125	53.42976379394531	1052.089111328125	732.658203125	-2.768450736999512	1030.746948242188	1009.574645996094	74.46965789794922	503.6546325683594	1013.540405273438	67.71089172363281	646.8414306640625	1049.994873046875	159.7508239746094	36.0688591003418	998.719970703125	123.5946426391602	282.0134887695312	1019.022277832031	-45.864990234375	44.42047119140625	914.65087890625	26.29383277893066	38.62711715698242	879.2573852539062	30.97013854980469	36.01154327392578	999.4325561523438	227.4944305419922	43.62351226806641	954.4755859375	112.1078262329102	516.3861694335938	750.0316162109375	98.59494781494141	784.1860961914062	697.7116088867188	173.5396881103516	37.77440643310547	788.7122192382812	104.7794799804688	400.9276733398438	768.770263671875	-42.0322265625	44.58817291259766	809.4554443359375	10.46085071563721	41.93707275390625	862.6392822265625	65.70430755615234	38.3239860534668	752.1226196289062	229.5828094482422	34.72686386108398	852.9677734375	
3	0.02	231.4345092773438	1051.048217773438	835.4020385742188	210.6417846679688	1055.468627929688	953.8425903320312	226.3469543457031	1132.88134765625	913.7814331054688	-12.21313953399658	1316.149169921875	875.0020751953125	236.8839874267578	1258.946044921875	913.3837890625	174.2429962158203	1520.238403320312	911.0736694335938	13.72227191925049	1433.216552734375	879.534912109375	266.6877136230469	1383.903442382812	849.4083862304688	175.8136749267578	1480.353515625	1022.684631347656	77.17328643798828	1479.398315429688	1061.729370117188	93.20513153076172	1360.615844726562	1142.2626953125	70.68572998046875	1150.549682617188	1167.231323242188	149.9172821044922	1133.261108398438	1134.229614257812	-9.593633651733398	917.7051391601562	1091.4609375	-0.4967770576477051	900.1727905273438	1174.8125	44.85242462158203	1043.243286132812	1176.330200195312	-35.47769546508789	723.3458862304688	1099.48876953125	-21.43082618713379	813.0899658203125	1165.759521484375	-52.74996185302734	824.02490234375	1103.761840820312	147.3295593261719	1480.537841796875	733.1527709960938	178.6836395263672	1415.65283203125	670.0682983398438	195.9991455078125	1135.021118164062	627.564697265625	220.1134643554688	1125.762817382812	719.2510986328125	49.08731842041016	923.7108764648438	650.7654418945312	108.6786956787109	909.0939331054688	592.2974243164062	169.3835754394531	1067.562866210938	610.8929443359375	29.33209609985352	728.2716674804688	644.86376953125	9.680950164794922	803.3151245117188	627.0765380859375	68.31663513183594	803.7380981445312	583.1949462890625	129.0752105712891	1686.316528320312	854.9954833984375	-94.4908447265625	1698.0810546875	892.0944213867188	-67.92905426025391	1696.138916015625	795.3286743164062	49.79241943359375	1688.720092773438	970.5829467773438	88.69203186035156	989.3472290039062	1074.44384765625	154.6107482910156	1009.831848144531	714.0269165039062	53.37906646728516	1052.076538085938	732.6437377929688	-2.787849903106689	1030.745727539062	1009.545593261719	74.47306823730469	503.6572265625	1013.541748046875	67.73339080810547	646.8424072265625	1049.979370117188	159.763671875	36.06981658935547	998.7130126953125	123.6050872802734	282.0291442871094	1019.004577636719	-45.86672210693359	44.42281341552734	914.6521606445312	26.29571723937988	38.62976455688477	879.2617797851562	30.97249794006348	36.01373291015625	999.432861328125	227.5191192626953	43.64852142333984	954.4972534179688	112.1062469482422	516.3817138671875	750.018798828125	98.58478546142578	784.1795043945312	697.69140625	173.5421905517578	37.77753067016602	788.7113037109375	104.7819671630859	400.9251403808594	768.7671508789062	-42.02685165405273	44.58160018920898	809.4475708007812	10.45780754089355	41.93172836303711	862.6355590820312	65.70211029052734	38.32340240478516	752.1251831054688	229.5825042724609	34.72951889038086	852.9690551757812	
4	0.03	231.3869476318359	1051.057250976562	835.3441162109375	210.6342010498047	1055.490112304688	953.7758178710938	226.3385772705078	1132.910400390625	913.7042846679688	-12.16879653930664	1316.132690429688	875.0247802734375	236.9101867675781	1258.945190429688	913.283203125	174.2205963134766	1520.249877929688	910.992431640625	13.68559265136719	1433.234985351562	879.5125122070312	266.6620483398438	1383.917724609375	849.2909545898438	175.8453216552734	1480.369140625	1022.61083984375	77.18276977539062	1479.41552734375	1061.701416015625	93.23853302001953	1360.620971679688	1142.240356445312	70.71505737304688	1150.558837890625	1167.199584960938	149.9154510498047	1133.273071289062	1134.185180664062	-9.512436866760254	917.6948852539062	1091.464111328125	-0.4177173972129822	900.1829833984375	1174.815551757812	44.90044021606445	1043.235961914062	1176.295288085938	-34.95300674438477	723.2023315429688	1099.735717773438	-21.33152198791504	813.0780029296875	1165.760864257812	-51.79600524902344	821.3056030273438	1103.879028320312	147.2727355957031	1480.532470703125	733.0924682617188	178.5043640136719	1415.675903320312	669.9850463867188	195.9150848388672	1135.026977539062	627.4588623046875	220.0287780761719	1125.758544921875	719.1334838867188	49.10329437255859	923.6721801757812	650.7435913085938	108.5278625488281	909.1279296875	592.1746215820312	169.2045593261719	1067.576782226562	610.7725219726562	29.20896911621094	728.2948608398438	644.7734985351562	9.494132995605469	803.3369140625	626.96923828125	68.17037963867188	803.7632446289062	583.087890625	129.0416259765625	1686.3095703125	854.9522094726562	-94.50234222412109	1698.076049804688	892.1373901367188	-67.98524475097656	1696.166625976562	795.359130859375	49.81183624267578	1688.712158203125	970.562255859375	88.68511199951172	989.34521484375	1074.413818359375	154.5714874267578	1009.828063964844	713.9892578125	53.31840515136719	1052.062866210938	732.6260986328125	-2.808017730712891	1030.743774414062	1009.513610839844	74.47894287109375	503.6605834960938	1013.542602539062	67.76253509521484	646.8462524414062	1049.9609375	159.7744598388672	36.07583236694336	998.7095947265625	123.619499206543	282.0518798828125	1018.98193359375	-45.86753463745117	44.42535018920898	914.652099609375	26.2965145111084	38.63138580322266	879.2637939453125	30.97504234313965	36.01568984985352	999.4323120117188	227.5412139892578	43.67097091674805	954.5164184570312	112.1014556884766	516.3753051757812	750.0042724609375	98.56931304931641	784.1709594726562	697.6676635742188	173.5433044433594	37.77881622314453	788.7096557617188	104.7844467163086	400.9232482910156	768.7628173828125	-42.0240592956543	44.57697296142578	809.4404296875	10.45602893829346	41.92597198486328	862.6297607421875	65.70056915283203	38.32264709472656	752.126708984375	229.5821838378906	34.73165512084961	852.9700317382812	
